%
M48
M72
T01C0.01378
T02C0.01969
T03C0.02362
T04C0.02756
T05C0.04000
T06C0.04331
T07C0.12598
%
T01
X163181Y64500
X178431Y50750
T02
X167931Y57500
X168431Y67000
X165931Y74250
X185931Y76750
X199431Y92750
X196431Y101000
X201431Y106000
X208931Y110500
X213431Y113000
X207931Y121000
X203431Y118500
X199181Y129750
X192847Y127446
X181681Y126750
X171931Y130000
X167431Y124500
X164681Y120000
X168556Y115500
X167681Y108500
X168931Y104250
X177431Y108000
X183931Y99500
X186931Y109000
X205931Y133500
X205931Y144500
X195231Y150600
X195931Y159000
X188431Y165000
X173431Y148500
X164931Y138500
X152306Y141000
X142431Y143500
X140931Y148500
X145931Y152500
X141431Y165000
X128931Y152500
X126931Y148500
X121431Y146000
X117931Y153000
X90931Y136500
X90931Y121500
X75931Y129000
X75931Y136000
X77431Y158500
X50931Y192500
X36431Y197000
X45931Y217000
X76681Y263000
X122431Y301250
X119431Y322500
X110931Y332000
X140431Y322500
X140431Y342000
X158931Y327500
X142931Y286500
X151431Y265000
X165681Y268250
X178931Y265500
X169431Y241500
X162681Y241750
X151431Y240000
X169431Y228500
X181181Y221750
X199931Y240500
X210931Y223500
X225931Y231000
X229931Y217500
X239931Y210500
X240181Y204000
X255931Y205800
X261431Y206500
X254931Y216500
X260931Y236500
X250431Y240500
X243431Y234000
X229931Y250500
X230431Y262000
X221931Y287500
X199931Y311500
X204931Y326500
X254431Y305750
X279931Y324000
X308031Y284700
X299431Y276400
X287431Y272000
X309931Y261000
X287431Y243500
X279431Y239500
X279431Y231250
X279431Y209500
X301681Y194250
X313347Y184500
X313931Y192000
X313347Y148245
X297931Y142500
X254931Y121300
X235931Y116000
X235431Y110000
X249431Y101400
X252931Y98400
X264181Y86000
X261931Y78500
X246431Y68500
X241931Y66000
X236431Y68000
X225931Y68000
X210931Y79000
X211931Y86500
X217931Y89500
X241931Y79500
X248931Y59000
X254431Y52000
X261431Y49000
X258431Y59500
X241931Y44500
X246931Y35000
X254431Y25750
X248931Y17000
X263431Y34000
X302431Y52000
X312431Y56000
X311431Y70600
X303431Y73500
X228431Y132000
X228431Y166000
X220431Y171000
X209931Y166000
X201931Y174500
X196931Y191500
X216431Y193500
X216931Y198500
X219931Y208000
X251931Y164500
X176431Y191500
X174931Y181500
X151431Y200000
X141931Y196500
X135931Y191000
X129931Y188000
X129746Y188000
X122931Y188000
X116681Y202750
X135431Y216500
X138431Y119000
X144431Y110500
X151431Y120000
X135020Y97911
X130931Y89000
X124931Y89500
X126931Y81500
X132431Y69500
X143931Y72500
X163181Y47250
X163181Y40000
X210931Y46000
X210931Y51500
X218931Y46000
X223431Y20500
X119431Y100500
X118431Y112500
X89931Y94500
X70931Y62000
X74085Y52000
X81959Y52000
X66211Y52000
X71931Y32000
X65431Y12000
X58931Y12000
X34931Y61250
X47931Y71000
X50931Y94500
X58431Y94500
X34931Y153750
X112931Y51000
X260181Y251500
T03
X242931Y267500
X252431Y284000
X252431Y288500
X248431Y305500
X242931Y305500
X233431Y286000
X228431Y286000
X217431Y306500
X209431Y308500
X209431Y318000
X176431Y289500
X170931Y289500
X145931Y260500
X133431Y265000
X121431Y269000
X99931Y295750
X68181Y289750
X56681Y299250
X41181Y319000
X36181Y319250
X45931Y273000
X50931Y273000
X69431Y215000
X86431Y213000
X65431Y184000
X77431Y174000
X69431Y154000
X62431Y126500
X81431Y122000
X105431Y126500
X107431Y115000
X121431Y117500
X127931Y127000
X130931Y116500
X111431Y139000
X119431Y159750
X118931Y179000
X137431Y173000
X144431Y172000
X146931Y159500
X185931Y183000
X210931Y178000
X234931Y198000
X237931Y215500
X239431Y245000
X225431Y245750
X207431Y272500
X179431Y257000
X165181Y252500
X143931Y223500
X135431Y235000
X145431Y212000
X42431Y94000
X39431Y89000
X89931Y50000
X102431Y49500
X117431Y35500
X99431Y14500
X97181Y8000
X121431Y68500
X121931Y84000
X112681Y84500
X107431Y84500
X102931Y77000
X135681Y83750
X178681Y90490
X189931Y36760
X165681Y18500
X215431Y17000
X301931Y63500
X297931Y251250
X280431Y279500
X287931Y298500
X292931Y298500
X163431Y342000
X147431Y343000
X125431Y338000
T04
X84600Y332854
X68262Y332854
T05
X310431Y239500
X310431Y229500
X310431Y219500
X310431Y209500
X139931Y11000
X129931Y11000
X119931Y11000
X109931Y11000
T06
X214931Y8500
X157431Y153500
X272431Y153500
X214931Y298500
T07
X38431Y12000
X308431Y12000
X308431Y342000
X38431Y342000
M30
