G75*
%MOIN*%
%OFA0B0*%
%FSLAX25Y25*%
%IPPOS*%
%LPD*%
%AMOC8*
5,1,8,0,0,1.08239X$1,22.5*
%
%ADD10C,0.00000*%
%ADD11C,0.01000*%
D10*
X0032132Y0012000D02*
X0032134Y0012158D01*
X0032140Y0012316D01*
X0032150Y0012474D01*
X0032164Y0012632D01*
X0032182Y0012789D01*
X0032203Y0012946D01*
X0032229Y0013102D01*
X0032259Y0013258D01*
X0032292Y0013413D01*
X0032330Y0013566D01*
X0032371Y0013719D01*
X0032416Y0013871D01*
X0032465Y0014022D01*
X0032518Y0014171D01*
X0032574Y0014319D01*
X0032634Y0014465D01*
X0032698Y0014610D01*
X0032766Y0014753D01*
X0032837Y0014895D01*
X0032911Y0015035D01*
X0032989Y0015172D01*
X0033071Y0015308D01*
X0033155Y0015442D01*
X0033244Y0015573D01*
X0033335Y0015702D01*
X0033430Y0015829D01*
X0033527Y0015954D01*
X0033628Y0016076D01*
X0033732Y0016195D01*
X0033839Y0016312D01*
X0033949Y0016426D01*
X0034062Y0016537D01*
X0034177Y0016646D01*
X0034295Y0016751D01*
X0034416Y0016853D01*
X0034539Y0016953D01*
X0034665Y0017049D01*
X0034793Y0017142D01*
X0034923Y0017232D01*
X0035056Y0017318D01*
X0035191Y0017402D01*
X0035327Y0017481D01*
X0035466Y0017558D01*
X0035607Y0017630D01*
X0035749Y0017700D01*
X0035893Y0017765D01*
X0036039Y0017827D01*
X0036186Y0017885D01*
X0036335Y0017940D01*
X0036485Y0017991D01*
X0036636Y0018038D01*
X0036788Y0018081D01*
X0036941Y0018120D01*
X0037096Y0018156D01*
X0037251Y0018187D01*
X0037407Y0018215D01*
X0037563Y0018239D01*
X0037720Y0018259D01*
X0037878Y0018275D01*
X0038035Y0018287D01*
X0038194Y0018295D01*
X0038352Y0018299D01*
X0038510Y0018299D01*
X0038668Y0018295D01*
X0038827Y0018287D01*
X0038984Y0018275D01*
X0039142Y0018259D01*
X0039299Y0018239D01*
X0039455Y0018215D01*
X0039611Y0018187D01*
X0039766Y0018156D01*
X0039921Y0018120D01*
X0040074Y0018081D01*
X0040226Y0018038D01*
X0040377Y0017991D01*
X0040527Y0017940D01*
X0040676Y0017885D01*
X0040823Y0017827D01*
X0040969Y0017765D01*
X0041113Y0017700D01*
X0041255Y0017630D01*
X0041396Y0017558D01*
X0041535Y0017481D01*
X0041671Y0017402D01*
X0041806Y0017318D01*
X0041939Y0017232D01*
X0042069Y0017142D01*
X0042197Y0017049D01*
X0042323Y0016953D01*
X0042446Y0016853D01*
X0042567Y0016751D01*
X0042685Y0016646D01*
X0042800Y0016537D01*
X0042913Y0016426D01*
X0043023Y0016312D01*
X0043130Y0016195D01*
X0043234Y0016076D01*
X0043335Y0015954D01*
X0043432Y0015829D01*
X0043527Y0015702D01*
X0043618Y0015573D01*
X0043707Y0015442D01*
X0043791Y0015308D01*
X0043873Y0015172D01*
X0043951Y0015035D01*
X0044025Y0014895D01*
X0044096Y0014753D01*
X0044164Y0014610D01*
X0044228Y0014465D01*
X0044288Y0014319D01*
X0044344Y0014171D01*
X0044397Y0014022D01*
X0044446Y0013871D01*
X0044491Y0013719D01*
X0044532Y0013566D01*
X0044570Y0013413D01*
X0044603Y0013258D01*
X0044633Y0013102D01*
X0044659Y0012946D01*
X0044680Y0012789D01*
X0044698Y0012632D01*
X0044712Y0012474D01*
X0044722Y0012316D01*
X0044728Y0012158D01*
X0044730Y0012000D01*
X0044728Y0011842D01*
X0044722Y0011684D01*
X0044712Y0011526D01*
X0044698Y0011368D01*
X0044680Y0011211D01*
X0044659Y0011054D01*
X0044633Y0010898D01*
X0044603Y0010742D01*
X0044570Y0010587D01*
X0044532Y0010434D01*
X0044491Y0010281D01*
X0044446Y0010129D01*
X0044397Y0009978D01*
X0044344Y0009829D01*
X0044288Y0009681D01*
X0044228Y0009535D01*
X0044164Y0009390D01*
X0044096Y0009247D01*
X0044025Y0009105D01*
X0043951Y0008965D01*
X0043873Y0008828D01*
X0043791Y0008692D01*
X0043707Y0008558D01*
X0043618Y0008427D01*
X0043527Y0008298D01*
X0043432Y0008171D01*
X0043335Y0008046D01*
X0043234Y0007924D01*
X0043130Y0007805D01*
X0043023Y0007688D01*
X0042913Y0007574D01*
X0042800Y0007463D01*
X0042685Y0007354D01*
X0042567Y0007249D01*
X0042446Y0007147D01*
X0042323Y0007047D01*
X0042197Y0006951D01*
X0042069Y0006858D01*
X0041939Y0006768D01*
X0041806Y0006682D01*
X0041671Y0006598D01*
X0041535Y0006519D01*
X0041396Y0006442D01*
X0041255Y0006370D01*
X0041113Y0006300D01*
X0040969Y0006235D01*
X0040823Y0006173D01*
X0040676Y0006115D01*
X0040527Y0006060D01*
X0040377Y0006009D01*
X0040226Y0005962D01*
X0040074Y0005919D01*
X0039921Y0005880D01*
X0039766Y0005844D01*
X0039611Y0005813D01*
X0039455Y0005785D01*
X0039299Y0005761D01*
X0039142Y0005741D01*
X0038984Y0005725D01*
X0038827Y0005713D01*
X0038668Y0005705D01*
X0038510Y0005701D01*
X0038352Y0005701D01*
X0038194Y0005705D01*
X0038035Y0005713D01*
X0037878Y0005725D01*
X0037720Y0005741D01*
X0037563Y0005761D01*
X0037407Y0005785D01*
X0037251Y0005813D01*
X0037096Y0005844D01*
X0036941Y0005880D01*
X0036788Y0005919D01*
X0036636Y0005962D01*
X0036485Y0006009D01*
X0036335Y0006060D01*
X0036186Y0006115D01*
X0036039Y0006173D01*
X0035893Y0006235D01*
X0035749Y0006300D01*
X0035607Y0006370D01*
X0035466Y0006442D01*
X0035327Y0006519D01*
X0035191Y0006598D01*
X0035056Y0006682D01*
X0034923Y0006768D01*
X0034793Y0006858D01*
X0034665Y0006951D01*
X0034539Y0007047D01*
X0034416Y0007147D01*
X0034295Y0007249D01*
X0034177Y0007354D01*
X0034062Y0007463D01*
X0033949Y0007574D01*
X0033839Y0007688D01*
X0033732Y0007805D01*
X0033628Y0007924D01*
X0033527Y0008046D01*
X0033430Y0008171D01*
X0033335Y0008298D01*
X0033244Y0008427D01*
X0033155Y0008558D01*
X0033071Y0008692D01*
X0032989Y0008828D01*
X0032911Y0008965D01*
X0032837Y0009105D01*
X0032766Y0009247D01*
X0032698Y0009390D01*
X0032634Y0009535D01*
X0032574Y0009681D01*
X0032518Y0009829D01*
X0032465Y0009978D01*
X0032416Y0010129D01*
X0032371Y0010281D01*
X0032330Y0010434D01*
X0032292Y0010587D01*
X0032259Y0010742D01*
X0032229Y0010898D01*
X0032203Y0011054D01*
X0032182Y0011211D01*
X0032164Y0011368D01*
X0032150Y0011526D01*
X0032140Y0011684D01*
X0032134Y0011842D01*
X0032132Y0012000D01*
X0302132Y0012000D02*
X0302134Y0012158D01*
X0302140Y0012316D01*
X0302150Y0012474D01*
X0302164Y0012632D01*
X0302182Y0012789D01*
X0302203Y0012946D01*
X0302229Y0013102D01*
X0302259Y0013258D01*
X0302292Y0013413D01*
X0302330Y0013566D01*
X0302371Y0013719D01*
X0302416Y0013871D01*
X0302465Y0014022D01*
X0302518Y0014171D01*
X0302574Y0014319D01*
X0302634Y0014465D01*
X0302698Y0014610D01*
X0302766Y0014753D01*
X0302837Y0014895D01*
X0302911Y0015035D01*
X0302989Y0015172D01*
X0303071Y0015308D01*
X0303155Y0015442D01*
X0303244Y0015573D01*
X0303335Y0015702D01*
X0303430Y0015829D01*
X0303527Y0015954D01*
X0303628Y0016076D01*
X0303732Y0016195D01*
X0303839Y0016312D01*
X0303949Y0016426D01*
X0304062Y0016537D01*
X0304177Y0016646D01*
X0304295Y0016751D01*
X0304416Y0016853D01*
X0304539Y0016953D01*
X0304665Y0017049D01*
X0304793Y0017142D01*
X0304923Y0017232D01*
X0305056Y0017318D01*
X0305191Y0017402D01*
X0305327Y0017481D01*
X0305466Y0017558D01*
X0305607Y0017630D01*
X0305749Y0017700D01*
X0305893Y0017765D01*
X0306039Y0017827D01*
X0306186Y0017885D01*
X0306335Y0017940D01*
X0306485Y0017991D01*
X0306636Y0018038D01*
X0306788Y0018081D01*
X0306941Y0018120D01*
X0307096Y0018156D01*
X0307251Y0018187D01*
X0307407Y0018215D01*
X0307563Y0018239D01*
X0307720Y0018259D01*
X0307878Y0018275D01*
X0308035Y0018287D01*
X0308194Y0018295D01*
X0308352Y0018299D01*
X0308510Y0018299D01*
X0308668Y0018295D01*
X0308827Y0018287D01*
X0308984Y0018275D01*
X0309142Y0018259D01*
X0309299Y0018239D01*
X0309455Y0018215D01*
X0309611Y0018187D01*
X0309766Y0018156D01*
X0309921Y0018120D01*
X0310074Y0018081D01*
X0310226Y0018038D01*
X0310377Y0017991D01*
X0310527Y0017940D01*
X0310676Y0017885D01*
X0310823Y0017827D01*
X0310969Y0017765D01*
X0311113Y0017700D01*
X0311255Y0017630D01*
X0311396Y0017558D01*
X0311535Y0017481D01*
X0311671Y0017402D01*
X0311806Y0017318D01*
X0311939Y0017232D01*
X0312069Y0017142D01*
X0312197Y0017049D01*
X0312323Y0016953D01*
X0312446Y0016853D01*
X0312567Y0016751D01*
X0312685Y0016646D01*
X0312800Y0016537D01*
X0312913Y0016426D01*
X0313023Y0016312D01*
X0313130Y0016195D01*
X0313234Y0016076D01*
X0313335Y0015954D01*
X0313432Y0015829D01*
X0313527Y0015702D01*
X0313618Y0015573D01*
X0313707Y0015442D01*
X0313791Y0015308D01*
X0313873Y0015172D01*
X0313951Y0015035D01*
X0314025Y0014895D01*
X0314096Y0014753D01*
X0314164Y0014610D01*
X0314228Y0014465D01*
X0314288Y0014319D01*
X0314344Y0014171D01*
X0314397Y0014022D01*
X0314446Y0013871D01*
X0314491Y0013719D01*
X0314532Y0013566D01*
X0314570Y0013413D01*
X0314603Y0013258D01*
X0314633Y0013102D01*
X0314659Y0012946D01*
X0314680Y0012789D01*
X0314698Y0012632D01*
X0314712Y0012474D01*
X0314722Y0012316D01*
X0314728Y0012158D01*
X0314730Y0012000D01*
X0314728Y0011842D01*
X0314722Y0011684D01*
X0314712Y0011526D01*
X0314698Y0011368D01*
X0314680Y0011211D01*
X0314659Y0011054D01*
X0314633Y0010898D01*
X0314603Y0010742D01*
X0314570Y0010587D01*
X0314532Y0010434D01*
X0314491Y0010281D01*
X0314446Y0010129D01*
X0314397Y0009978D01*
X0314344Y0009829D01*
X0314288Y0009681D01*
X0314228Y0009535D01*
X0314164Y0009390D01*
X0314096Y0009247D01*
X0314025Y0009105D01*
X0313951Y0008965D01*
X0313873Y0008828D01*
X0313791Y0008692D01*
X0313707Y0008558D01*
X0313618Y0008427D01*
X0313527Y0008298D01*
X0313432Y0008171D01*
X0313335Y0008046D01*
X0313234Y0007924D01*
X0313130Y0007805D01*
X0313023Y0007688D01*
X0312913Y0007574D01*
X0312800Y0007463D01*
X0312685Y0007354D01*
X0312567Y0007249D01*
X0312446Y0007147D01*
X0312323Y0007047D01*
X0312197Y0006951D01*
X0312069Y0006858D01*
X0311939Y0006768D01*
X0311806Y0006682D01*
X0311671Y0006598D01*
X0311535Y0006519D01*
X0311396Y0006442D01*
X0311255Y0006370D01*
X0311113Y0006300D01*
X0310969Y0006235D01*
X0310823Y0006173D01*
X0310676Y0006115D01*
X0310527Y0006060D01*
X0310377Y0006009D01*
X0310226Y0005962D01*
X0310074Y0005919D01*
X0309921Y0005880D01*
X0309766Y0005844D01*
X0309611Y0005813D01*
X0309455Y0005785D01*
X0309299Y0005761D01*
X0309142Y0005741D01*
X0308984Y0005725D01*
X0308827Y0005713D01*
X0308668Y0005705D01*
X0308510Y0005701D01*
X0308352Y0005701D01*
X0308194Y0005705D01*
X0308035Y0005713D01*
X0307878Y0005725D01*
X0307720Y0005741D01*
X0307563Y0005761D01*
X0307407Y0005785D01*
X0307251Y0005813D01*
X0307096Y0005844D01*
X0306941Y0005880D01*
X0306788Y0005919D01*
X0306636Y0005962D01*
X0306485Y0006009D01*
X0306335Y0006060D01*
X0306186Y0006115D01*
X0306039Y0006173D01*
X0305893Y0006235D01*
X0305749Y0006300D01*
X0305607Y0006370D01*
X0305466Y0006442D01*
X0305327Y0006519D01*
X0305191Y0006598D01*
X0305056Y0006682D01*
X0304923Y0006768D01*
X0304793Y0006858D01*
X0304665Y0006951D01*
X0304539Y0007047D01*
X0304416Y0007147D01*
X0304295Y0007249D01*
X0304177Y0007354D01*
X0304062Y0007463D01*
X0303949Y0007574D01*
X0303839Y0007688D01*
X0303732Y0007805D01*
X0303628Y0007924D01*
X0303527Y0008046D01*
X0303430Y0008171D01*
X0303335Y0008298D01*
X0303244Y0008427D01*
X0303155Y0008558D01*
X0303071Y0008692D01*
X0302989Y0008828D01*
X0302911Y0008965D01*
X0302837Y0009105D01*
X0302766Y0009247D01*
X0302698Y0009390D01*
X0302634Y0009535D01*
X0302574Y0009681D01*
X0302518Y0009829D01*
X0302465Y0009978D01*
X0302416Y0010129D01*
X0302371Y0010281D01*
X0302330Y0010434D01*
X0302292Y0010587D01*
X0302259Y0010742D01*
X0302229Y0010898D01*
X0302203Y0011054D01*
X0302182Y0011211D01*
X0302164Y0011368D01*
X0302150Y0011526D01*
X0302140Y0011684D01*
X0302134Y0011842D01*
X0302132Y0012000D01*
X0083222Y0332854D02*
X0083224Y0332928D01*
X0083230Y0333002D01*
X0083240Y0333075D01*
X0083254Y0333148D01*
X0083271Y0333220D01*
X0083293Y0333290D01*
X0083318Y0333360D01*
X0083347Y0333428D01*
X0083380Y0333494D01*
X0083416Y0333559D01*
X0083456Y0333621D01*
X0083498Y0333682D01*
X0083544Y0333740D01*
X0083593Y0333795D01*
X0083645Y0333848D01*
X0083700Y0333898D01*
X0083757Y0333944D01*
X0083817Y0333988D01*
X0083879Y0334028D01*
X0083943Y0334065D01*
X0084009Y0334099D01*
X0084077Y0334129D01*
X0084146Y0334155D01*
X0084217Y0334178D01*
X0084288Y0334196D01*
X0084361Y0334211D01*
X0084434Y0334222D01*
X0084508Y0334229D01*
X0084582Y0334232D01*
X0084655Y0334231D01*
X0084729Y0334226D01*
X0084803Y0334217D01*
X0084876Y0334204D01*
X0084948Y0334187D01*
X0085019Y0334167D01*
X0085089Y0334142D01*
X0085157Y0334114D01*
X0085224Y0334083D01*
X0085289Y0334047D01*
X0085352Y0334009D01*
X0085413Y0333967D01*
X0085472Y0333921D01*
X0085528Y0333873D01*
X0085581Y0333822D01*
X0085631Y0333768D01*
X0085679Y0333711D01*
X0085723Y0333652D01*
X0085765Y0333590D01*
X0085803Y0333527D01*
X0085837Y0333461D01*
X0085868Y0333394D01*
X0085895Y0333325D01*
X0085918Y0333255D01*
X0085938Y0333184D01*
X0085954Y0333111D01*
X0085966Y0333038D01*
X0085974Y0332965D01*
X0085978Y0332891D01*
X0085978Y0332817D01*
X0085974Y0332743D01*
X0085966Y0332670D01*
X0085954Y0332597D01*
X0085938Y0332524D01*
X0085918Y0332453D01*
X0085895Y0332383D01*
X0085868Y0332314D01*
X0085837Y0332247D01*
X0085803Y0332181D01*
X0085765Y0332118D01*
X0085723Y0332056D01*
X0085679Y0331997D01*
X0085631Y0331940D01*
X0085581Y0331886D01*
X0085528Y0331835D01*
X0085472Y0331787D01*
X0085413Y0331741D01*
X0085352Y0331699D01*
X0085289Y0331661D01*
X0085224Y0331625D01*
X0085157Y0331594D01*
X0085089Y0331566D01*
X0085019Y0331541D01*
X0084948Y0331521D01*
X0084876Y0331504D01*
X0084803Y0331491D01*
X0084729Y0331482D01*
X0084655Y0331477D01*
X0084582Y0331476D01*
X0084508Y0331479D01*
X0084434Y0331486D01*
X0084361Y0331497D01*
X0084288Y0331512D01*
X0084217Y0331530D01*
X0084146Y0331553D01*
X0084077Y0331579D01*
X0084009Y0331609D01*
X0083943Y0331643D01*
X0083879Y0331680D01*
X0083817Y0331720D01*
X0083757Y0331764D01*
X0083700Y0331810D01*
X0083645Y0331860D01*
X0083593Y0331913D01*
X0083544Y0331968D01*
X0083498Y0332026D01*
X0083456Y0332087D01*
X0083416Y0332149D01*
X0083380Y0332214D01*
X0083347Y0332280D01*
X0083318Y0332348D01*
X0083293Y0332418D01*
X0083271Y0332488D01*
X0083254Y0332560D01*
X0083240Y0332633D01*
X0083230Y0332706D01*
X0083224Y0332780D01*
X0083222Y0332854D01*
X0066884Y0332854D02*
X0066886Y0332928D01*
X0066892Y0333002D01*
X0066902Y0333075D01*
X0066916Y0333148D01*
X0066933Y0333220D01*
X0066955Y0333290D01*
X0066980Y0333360D01*
X0067009Y0333428D01*
X0067042Y0333494D01*
X0067078Y0333559D01*
X0067118Y0333621D01*
X0067160Y0333682D01*
X0067206Y0333740D01*
X0067255Y0333795D01*
X0067307Y0333848D01*
X0067362Y0333898D01*
X0067419Y0333944D01*
X0067479Y0333988D01*
X0067541Y0334028D01*
X0067605Y0334065D01*
X0067671Y0334099D01*
X0067739Y0334129D01*
X0067808Y0334155D01*
X0067879Y0334178D01*
X0067950Y0334196D01*
X0068023Y0334211D01*
X0068096Y0334222D01*
X0068170Y0334229D01*
X0068244Y0334232D01*
X0068317Y0334231D01*
X0068391Y0334226D01*
X0068465Y0334217D01*
X0068538Y0334204D01*
X0068610Y0334187D01*
X0068681Y0334167D01*
X0068751Y0334142D01*
X0068819Y0334114D01*
X0068886Y0334083D01*
X0068951Y0334047D01*
X0069014Y0334009D01*
X0069075Y0333967D01*
X0069134Y0333921D01*
X0069190Y0333873D01*
X0069243Y0333822D01*
X0069293Y0333768D01*
X0069341Y0333711D01*
X0069385Y0333652D01*
X0069427Y0333590D01*
X0069465Y0333527D01*
X0069499Y0333461D01*
X0069530Y0333394D01*
X0069557Y0333325D01*
X0069580Y0333255D01*
X0069600Y0333184D01*
X0069616Y0333111D01*
X0069628Y0333038D01*
X0069636Y0332965D01*
X0069640Y0332891D01*
X0069640Y0332817D01*
X0069636Y0332743D01*
X0069628Y0332670D01*
X0069616Y0332597D01*
X0069600Y0332524D01*
X0069580Y0332453D01*
X0069557Y0332383D01*
X0069530Y0332314D01*
X0069499Y0332247D01*
X0069465Y0332181D01*
X0069427Y0332118D01*
X0069385Y0332056D01*
X0069341Y0331997D01*
X0069293Y0331940D01*
X0069243Y0331886D01*
X0069190Y0331835D01*
X0069134Y0331787D01*
X0069075Y0331741D01*
X0069014Y0331699D01*
X0068951Y0331661D01*
X0068886Y0331625D01*
X0068819Y0331594D01*
X0068751Y0331566D01*
X0068681Y0331541D01*
X0068610Y0331521D01*
X0068538Y0331504D01*
X0068465Y0331491D01*
X0068391Y0331482D01*
X0068317Y0331477D01*
X0068244Y0331476D01*
X0068170Y0331479D01*
X0068096Y0331486D01*
X0068023Y0331497D01*
X0067950Y0331512D01*
X0067879Y0331530D01*
X0067808Y0331553D01*
X0067739Y0331579D01*
X0067671Y0331609D01*
X0067605Y0331643D01*
X0067541Y0331680D01*
X0067479Y0331720D01*
X0067419Y0331764D01*
X0067362Y0331810D01*
X0067307Y0331860D01*
X0067255Y0331913D01*
X0067206Y0331968D01*
X0067160Y0332026D01*
X0067118Y0332087D01*
X0067078Y0332149D01*
X0067042Y0332214D01*
X0067009Y0332280D01*
X0066980Y0332348D01*
X0066955Y0332418D01*
X0066933Y0332488D01*
X0066916Y0332560D01*
X0066902Y0332633D01*
X0066892Y0332706D01*
X0066886Y0332780D01*
X0066884Y0332854D01*
X0032132Y0342000D02*
X0032134Y0342158D01*
X0032140Y0342316D01*
X0032150Y0342474D01*
X0032164Y0342632D01*
X0032182Y0342789D01*
X0032203Y0342946D01*
X0032229Y0343102D01*
X0032259Y0343258D01*
X0032292Y0343413D01*
X0032330Y0343566D01*
X0032371Y0343719D01*
X0032416Y0343871D01*
X0032465Y0344022D01*
X0032518Y0344171D01*
X0032574Y0344319D01*
X0032634Y0344465D01*
X0032698Y0344610D01*
X0032766Y0344753D01*
X0032837Y0344895D01*
X0032911Y0345035D01*
X0032989Y0345172D01*
X0033071Y0345308D01*
X0033155Y0345442D01*
X0033244Y0345573D01*
X0033335Y0345702D01*
X0033430Y0345829D01*
X0033527Y0345954D01*
X0033628Y0346076D01*
X0033732Y0346195D01*
X0033839Y0346312D01*
X0033949Y0346426D01*
X0034062Y0346537D01*
X0034177Y0346646D01*
X0034295Y0346751D01*
X0034416Y0346853D01*
X0034539Y0346953D01*
X0034665Y0347049D01*
X0034793Y0347142D01*
X0034923Y0347232D01*
X0035056Y0347318D01*
X0035191Y0347402D01*
X0035327Y0347481D01*
X0035466Y0347558D01*
X0035607Y0347630D01*
X0035749Y0347700D01*
X0035893Y0347765D01*
X0036039Y0347827D01*
X0036186Y0347885D01*
X0036335Y0347940D01*
X0036485Y0347991D01*
X0036636Y0348038D01*
X0036788Y0348081D01*
X0036941Y0348120D01*
X0037096Y0348156D01*
X0037251Y0348187D01*
X0037407Y0348215D01*
X0037563Y0348239D01*
X0037720Y0348259D01*
X0037878Y0348275D01*
X0038035Y0348287D01*
X0038194Y0348295D01*
X0038352Y0348299D01*
X0038510Y0348299D01*
X0038668Y0348295D01*
X0038827Y0348287D01*
X0038984Y0348275D01*
X0039142Y0348259D01*
X0039299Y0348239D01*
X0039455Y0348215D01*
X0039611Y0348187D01*
X0039766Y0348156D01*
X0039921Y0348120D01*
X0040074Y0348081D01*
X0040226Y0348038D01*
X0040377Y0347991D01*
X0040527Y0347940D01*
X0040676Y0347885D01*
X0040823Y0347827D01*
X0040969Y0347765D01*
X0041113Y0347700D01*
X0041255Y0347630D01*
X0041396Y0347558D01*
X0041535Y0347481D01*
X0041671Y0347402D01*
X0041806Y0347318D01*
X0041939Y0347232D01*
X0042069Y0347142D01*
X0042197Y0347049D01*
X0042323Y0346953D01*
X0042446Y0346853D01*
X0042567Y0346751D01*
X0042685Y0346646D01*
X0042800Y0346537D01*
X0042913Y0346426D01*
X0043023Y0346312D01*
X0043130Y0346195D01*
X0043234Y0346076D01*
X0043335Y0345954D01*
X0043432Y0345829D01*
X0043527Y0345702D01*
X0043618Y0345573D01*
X0043707Y0345442D01*
X0043791Y0345308D01*
X0043873Y0345172D01*
X0043951Y0345035D01*
X0044025Y0344895D01*
X0044096Y0344753D01*
X0044164Y0344610D01*
X0044228Y0344465D01*
X0044288Y0344319D01*
X0044344Y0344171D01*
X0044397Y0344022D01*
X0044446Y0343871D01*
X0044491Y0343719D01*
X0044532Y0343566D01*
X0044570Y0343413D01*
X0044603Y0343258D01*
X0044633Y0343102D01*
X0044659Y0342946D01*
X0044680Y0342789D01*
X0044698Y0342632D01*
X0044712Y0342474D01*
X0044722Y0342316D01*
X0044728Y0342158D01*
X0044730Y0342000D01*
X0044728Y0341842D01*
X0044722Y0341684D01*
X0044712Y0341526D01*
X0044698Y0341368D01*
X0044680Y0341211D01*
X0044659Y0341054D01*
X0044633Y0340898D01*
X0044603Y0340742D01*
X0044570Y0340587D01*
X0044532Y0340434D01*
X0044491Y0340281D01*
X0044446Y0340129D01*
X0044397Y0339978D01*
X0044344Y0339829D01*
X0044288Y0339681D01*
X0044228Y0339535D01*
X0044164Y0339390D01*
X0044096Y0339247D01*
X0044025Y0339105D01*
X0043951Y0338965D01*
X0043873Y0338828D01*
X0043791Y0338692D01*
X0043707Y0338558D01*
X0043618Y0338427D01*
X0043527Y0338298D01*
X0043432Y0338171D01*
X0043335Y0338046D01*
X0043234Y0337924D01*
X0043130Y0337805D01*
X0043023Y0337688D01*
X0042913Y0337574D01*
X0042800Y0337463D01*
X0042685Y0337354D01*
X0042567Y0337249D01*
X0042446Y0337147D01*
X0042323Y0337047D01*
X0042197Y0336951D01*
X0042069Y0336858D01*
X0041939Y0336768D01*
X0041806Y0336682D01*
X0041671Y0336598D01*
X0041535Y0336519D01*
X0041396Y0336442D01*
X0041255Y0336370D01*
X0041113Y0336300D01*
X0040969Y0336235D01*
X0040823Y0336173D01*
X0040676Y0336115D01*
X0040527Y0336060D01*
X0040377Y0336009D01*
X0040226Y0335962D01*
X0040074Y0335919D01*
X0039921Y0335880D01*
X0039766Y0335844D01*
X0039611Y0335813D01*
X0039455Y0335785D01*
X0039299Y0335761D01*
X0039142Y0335741D01*
X0038984Y0335725D01*
X0038827Y0335713D01*
X0038668Y0335705D01*
X0038510Y0335701D01*
X0038352Y0335701D01*
X0038194Y0335705D01*
X0038035Y0335713D01*
X0037878Y0335725D01*
X0037720Y0335741D01*
X0037563Y0335761D01*
X0037407Y0335785D01*
X0037251Y0335813D01*
X0037096Y0335844D01*
X0036941Y0335880D01*
X0036788Y0335919D01*
X0036636Y0335962D01*
X0036485Y0336009D01*
X0036335Y0336060D01*
X0036186Y0336115D01*
X0036039Y0336173D01*
X0035893Y0336235D01*
X0035749Y0336300D01*
X0035607Y0336370D01*
X0035466Y0336442D01*
X0035327Y0336519D01*
X0035191Y0336598D01*
X0035056Y0336682D01*
X0034923Y0336768D01*
X0034793Y0336858D01*
X0034665Y0336951D01*
X0034539Y0337047D01*
X0034416Y0337147D01*
X0034295Y0337249D01*
X0034177Y0337354D01*
X0034062Y0337463D01*
X0033949Y0337574D01*
X0033839Y0337688D01*
X0033732Y0337805D01*
X0033628Y0337924D01*
X0033527Y0338046D01*
X0033430Y0338171D01*
X0033335Y0338298D01*
X0033244Y0338427D01*
X0033155Y0338558D01*
X0033071Y0338692D01*
X0032989Y0338828D01*
X0032911Y0338965D01*
X0032837Y0339105D01*
X0032766Y0339247D01*
X0032698Y0339390D01*
X0032634Y0339535D01*
X0032574Y0339681D01*
X0032518Y0339829D01*
X0032465Y0339978D01*
X0032416Y0340129D01*
X0032371Y0340281D01*
X0032330Y0340434D01*
X0032292Y0340587D01*
X0032259Y0340742D01*
X0032229Y0340898D01*
X0032203Y0341054D01*
X0032182Y0341211D01*
X0032164Y0341368D01*
X0032150Y0341526D01*
X0032140Y0341684D01*
X0032134Y0341842D01*
X0032132Y0342000D01*
X0302132Y0342000D02*
X0302134Y0342158D01*
X0302140Y0342316D01*
X0302150Y0342474D01*
X0302164Y0342632D01*
X0302182Y0342789D01*
X0302203Y0342946D01*
X0302229Y0343102D01*
X0302259Y0343258D01*
X0302292Y0343413D01*
X0302330Y0343566D01*
X0302371Y0343719D01*
X0302416Y0343871D01*
X0302465Y0344022D01*
X0302518Y0344171D01*
X0302574Y0344319D01*
X0302634Y0344465D01*
X0302698Y0344610D01*
X0302766Y0344753D01*
X0302837Y0344895D01*
X0302911Y0345035D01*
X0302989Y0345172D01*
X0303071Y0345308D01*
X0303155Y0345442D01*
X0303244Y0345573D01*
X0303335Y0345702D01*
X0303430Y0345829D01*
X0303527Y0345954D01*
X0303628Y0346076D01*
X0303732Y0346195D01*
X0303839Y0346312D01*
X0303949Y0346426D01*
X0304062Y0346537D01*
X0304177Y0346646D01*
X0304295Y0346751D01*
X0304416Y0346853D01*
X0304539Y0346953D01*
X0304665Y0347049D01*
X0304793Y0347142D01*
X0304923Y0347232D01*
X0305056Y0347318D01*
X0305191Y0347402D01*
X0305327Y0347481D01*
X0305466Y0347558D01*
X0305607Y0347630D01*
X0305749Y0347700D01*
X0305893Y0347765D01*
X0306039Y0347827D01*
X0306186Y0347885D01*
X0306335Y0347940D01*
X0306485Y0347991D01*
X0306636Y0348038D01*
X0306788Y0348081D01*
X0306941Y0348120D01*
X0307096Y0348156D01*
X0307251Y0348187D01*
X0307407Y0348215D01*
X0307563Y0348239D01*
X0307720Y0348259D01*
X0307878Y0348275D01*
X0308035Y0348287D01*
X0308194Y0348295D01*
X0308352Y0348299D01*
X0308510Y0348299D01*
X0308668Y0348295D01*
X0308827Y0348287D01*
X0308984Y0348275D01*
X0309142Y0348259D01*
X0309299Y0348239D01*
X0309455Y0348215D01*
X0309611Y0348187D01*
X0309766Y0348156D01*
X0309921Y0348120D01*
X0310074Y0348081D01*
X0310226Y0348038D01*
X0310377Y0347991D01*
X0310527Y0347940D01*
X0310676Y0347885D01*
X0310823Y0347827D01*
X0310969Y0347765D01*
X0311113Y0347700D01*
X0311255Y0347630D01*
X0311396Y0347558D01*
X0311535Y0347481D01*
X0311671Y0347402D01*
X0311806Y0347318D01*
X0311939Y0347232D01*
X0312069Y0347142D01*
X0312197Y0347049D01*
X0312323Y0346953D01*
X0312446Y0346853D01*
X0312567Y0346751D01*
X0312685Y0346646D01*
X0312800Y0346537D01*
X0312913Y0346426D01*
X0313023Y0346312D01*
X0313130Y0346195D01*
X0313234Y0346076D01*
X0313335Y0345954D01*
X0313432Y0345829D01*
X0313527Y0345702D01*
X0313618Y0345573D01*
X0313707Y0345442D01*
X0313791Y0345308D01*
X0313873Y0345172D01*
X0313951Y0345035D01*
X0314025Y0344895D01*
X0314096Y0344753D01*
X0314164Y0344610D01*
X0314228Y0344465D01*
X0314288Y0344319D01*
X0314344Y0344171D01*
X0314397Y0344022D01*
X0314446Y0343871D01*
X0314491Y0343719D01*
X0314532Y0343566D01*
X0314570Y0343413D01*
X0314603Y0343258D01*
X0314633Y0343102D01*
X0314659Y0342946D01*
X0314680Y0342789D01*
X0314698Y0342632D01*
X0314712Y0342474D01*
X0314722Y0342316D01*
X0314728Y0342158D01*
X0314730Y0342000D01*
X0314728Y0341842D01*
X0314722Y0341684D01*
X0314712Y0341526D01*
X0314698Y0341368D01*
X0314680Y0341211D01*
X0314659Y0341054D01*
X0314633Y0340898D01*
X0314603Y0340742D01*
X0314570Y0340587D01*
X0314532Y0340434D01*
X0314491Y0340281D01*
X0314446Y0340129D01*
X0314397Y0339978D01*
X0314344Y0339829D01*
X0314288Y0339681D01*
X0314228Y0339535D01*
X0314164Y0339390D01*
X0314096Y0339247D01*
X0314025Y0339105D01*
X0313951Y0338965D01*
X0313873Y0338828D01*
X0313791Y0338692D01*
X0313707Y0338558D01*
X0313618Y0338427D01*
X0313527Y0338298D01*
X0313432Y0338171D01*
X0313335Y0338046D01*
X0313234Y0337924D01*
X0313130Y0337805D01*
X0313023Y0337688D01*
X0312913Y0337574D01*
X0312800Y0337463D01*
X0312685Y0337354D01*
X0312567Y0337249D01*
X0312446Y0337147D01*
X0312323Y0337047D01*
X0312197Y0336951D01*
X0312069Y0336858D01*
X0311939Y0336768D01*
X0311806Y0336682D01*
X0311671Y0336598D01*
X0311535Y0336519D01*
X0311396Y0336442D01*
X0311255Y0336370D01*
X0311113Y0336300D01*
X0310969Y0336235D01*
X0310823Y0336173D01*
X0310676Y0336115D01*
X0310527Y0336060D01*
X0310377Y0336009D01*
X0310226Y0335962D01*
X0310074Y0335919D01*
X0309921Y0335880D01*
X0309766Y0335844D01*
X0309611Y0335813D01*
X0309455Y0335785D01*
X0309299Y0335761D01*
X0309142Y0335741D01*
X0308984Y0335725D01*
X0308827Y0335713D01*
X0308668Y0335705D01*
X0308510Y0335701D01*
X0308352Y0335701D01*
X0308194Y0335705D01*
X0308035Y0335713D01*
X0307878Y0335725D01*
X0307720Y0335741D01*
X0307563Y0335761D01*
X0307407Y0335785D01*
X0307251Y0335813D01*
X0307096Y0335844D01*
X0306941Y0335880D01*
X0306788Y0335919D01*
X0306636Y0335962D01*
X0306485Y0336009D01*
X0306335Y0336060D01*
X0306186Y0336115D01*
X0306039Y0336173D01*
X0305893Y0336235D01*
X0305749Y0336300D01*
X0305607Y0336370D01*
X0305466Y0336442D01*
X0305327Y0336519D01*
X0305191Y0336598D01*
X0305056Y0336682D01*
X0304923Y0336768D01*
X0304793Y0336858D01*
X0304665Y0336951D01*
X0304539Y0337047D01*
X0304416Y0337147D01*
X0304295Y0337249D01*
X0304177Y0337354D01*
X0304062Y0337463D01*
X0303949Y0337574D01*
X0303839Y0337688D01*
X0303732Y0337805D01*
X0303628Y0337924D01*
X0303527Y0338046D01*
X0303430Y0338171D01*
X0303335Y0338298D01*
X0303244Y0338427D01*
X0303155Y0338558D01*
X0303071Y0338692D01*
X0302989Y0338828D01*
X0302911Y0338965D01*
X0302837Y0339105D01*
X0302766Y0339247D01*
X0302698Y0339390D01*
X0302634Y0339535D01*
X0302574Y0339681D01*
X0302518Y0339829D01*
X0302465Y0339978D01*
X0302416Y0340129D01*
X0302371Y0340281D01*
X0302330Y0340434D01*
X0302292Y0340587D01*
X0302259Y0340742D01*
X0302229Y0340898D01*
X0302203Y0341054D01*
X0302182Y0341211D01*
X0302164Y0341368D01*
X0302150Y0341526D01*
X0302140Y0341684D01*
X0302134Y0341842D01*
X0302132Y0342000D01*
D11*
X0028431Y0342000D02*
X0028431Y0012000D01*
X0028434Y0011758D01*
X0028443Y0011517D01*
X0028457Y0011276D01*
X0028478Y0011035D01*
X0028504Y0010795D01*
X0028536Y0010555D01*
X0028574Y0010316D01*
X0028617Y0010079D01*
X0028667Y0009842D01*
X0028722Y0009607D01*
X0028782Y0009373D01*
X0028849Y0009141D01*
X0028920Y0008910D01*
X0028998Y0008681D01*
X0029081Y0008454D01*
X0029169Y0008229D01*
X0029263Y0008006D01*
X0029362Y0007786D01*
X0029467Y0007568D01*
X0029576Y0007353D01*
X0029691Y0007140D01*
X0029811Y0006930D01*
X0029936Y0006724D01*
X0030066Y0006520D01*
X0030201Y0006319D01*
X0030341Y0006122D01*
X0030485Y0005928D01*
X0030634Y0005738D01*
X0030788Y0005552D01*
X0030946Y0005369D01*
X0031108Y0005190D01*
X0031275Y0005015D01*
X0031446Y0004844D01*
X0031621Y0004677D01*
X0031800Y0004515D01*
X0031983Y0004357D01*
X0032169Y0004203D01*
X0032359Y0004054D01*
X0032553Y0003910D01*
X0032750Y0003770D01*
X0032951Y0003635D01*
X0033155Y0003505D01*
X0033361Y0003380D01*
X0033571Y0003260D01*
X0033784Y0003145D01*
X0033999Y0003036D01*
X0034217Y0002931D01*
X0034437Y0002832D01*
X0034660Y0002738D01*
X0034885Y0002650D01*
X0035112Y0002567D01*
X0035341Y0002489D01*
X0035572Y0002418D01*
X0035804Y0002351D01*
X0036038Y0002291D01*
X0036273Y0002236D01*
X0036510Y0002186D01*
X0036747Y0002143D01*
X0036986Y0002105D01*
X0037226Y0002073D01*
X0037466Y0002047D01*
X0037707Y0002026D01*
X0037948Y0002012D01*
X0038189Y0002003D01*
X0038431Y0002000D01*
X0308431Y0002000D01*
X0308673Y0002003D01*
X0308914Y0002012D01*
X0309155Y0002026D01*
X0309396Y0002047D01*
X0309636Y0002073D01*
X0309876Y0002105D01*
X0310115Y0002143D01*
X0310352Y0002186D01*
X0310589Y0002236D01*
X0310824Y0002291D01*
X0311058Y0002351D01*
X0311290Y0002418D01*
X0311521Y0002489D01*
X0311750Y0002567D01*
X0311977Y0002650D01*
X0312202Y0002738D01*
X0312425Y0002832D01*
X0312645Y0002931D01*
X0312863Y0003036D01*
X0313078Y0003145D01*
X0313291Y0003260D01*
X0313501Y0003380D01*
X0313707Y0003505D01*
X0313911Y0003635D01*
X0314112Y0003770D01*
X0314309Y0003910D01*
X0314503Y0004054D01*
X0314693Y0004203D01*
X0314879Y0004357D01*
X0315062Y0004515D01*
X0315241Y0004677D01*
X0315416Y0004844D01*
X0315587Y0005015D01*
X0315754Y0005190D01*
X0315916Y0005369D01*
X0316074Y0005552D01*
X0316228Y0005738D01*
X0316377Y0005928D01*
X0316521Y0006122D01*
X0316661Y0006319D01*
X0316796Y0006520D01*
X0316926Y0006724D01*
X0317051Y0006930D01*
X0317171Y0007140D01*
X0317286Y0007353D01*
X0317395Y0007568D01*
X0317500Y0007786D01*
X0317599Y0008006D01*
X0317693Y0008229D01*
X0317781Y0008454D01*
X0317864Y0008681D01*
X0317942Y0008910D01*
X0318013Y0009141D01*
X0318080Y0009373D01*
X0318140Y0009607D01*
X0318195Y0009842D01*
X0318245Y0010079D01*
X0318288Y0010316D01*
X0318326Y0010555D01*
X0318358Y0010795D01*
X0318384Y0011035D01*
X0318405Y0011276D01*
X0318419Y0011517D01*
X0318428Y0011758D01*
X0318431Y0012000D01*
X0318431Y0342000D01*
X0318428Y0342242D01*
X0318419Y0342483D01*
X0318405Y0342724D01*
X0318384Y0342965D01*
X0318358Y0343205D01*
X0318326Y0343445D01*
X0318288Y0343684D01*
X0318245Y0343921D01*
X0318195Y0344158D01*
X0318140Y0344393D01*
X0318080Y0344627D01*
X0318013Y0344859D01*
X0317942Y0345090D01*
X0317864Y0345319D01*
X0317781Y0345546D01*
X0317693Y0345771D01*
X0317599Y0345994D01*
X0317500Y0346214D01*
X0317395Y0346432D01*
X0317286Y0346647D01*
X0317171Y0346860D01*
X0317051Y0347070D01*
X0316926Y0347276D01*
X0316796Y0347480D01*
X0316661Y0347681D01*
X0316521Y0347878D01*
X0316377Y0348072D01*
X0316228Y0348262D01*
X0316074Y0348448D01*
X0315916Y0348631D01*
X0315754Y0348810D01*
X0315587Y0348985D01*
X0315416Y0349156D01*
X0315241Y0349323D01*
X0315062Y0349485D01*
X0314879Y0349643D01*
X0314693Y0349797D01*
X0314503Y0349946D01*
X0314309Y0350090D01*
X0314112Y0350230D01*
X0313911Y0350365D01*
X0313707Y0350495D01*
X0313501Y0350620D01*
X0313291Y0350740D01*
X0313078Y0350855D01*
X0312863Y0350964D01*
X0312645Y0351069D01*
X0312425Y0351168D01*
X0312202Y0351262D01*
X0311977Y0351350D01*
X0311750Y0351433D01*
X0311521Y0351511D01*
X0311290Y0351582D01*
X0311058Y0351649D01*
X0310824Y0351709D01*
X0310589Y0351764D01*
X0310352Y0351814D01*
X0310115Y0351857D01*
X0309876Y0351895D01*
X0309636Y0351927D01*
X0309396Y0351953D01*
X0309155Y0351974D01*
X0308914Y0351988D01*
X0308673Y0351997D01*
X0308431Y0352000D01*
X0038431Y0352000D01*
X0038189Y0351997D01*
X0037948Y0351988D01*
X0037707Y0351974D01*
X0037466Y0351953D01*
X0037226Y0351927D01*
X0036986Y0351895D01*
X0036747Y0351857D01*
X0036510Y0351814D01*
X0036273Y0351764D01*
X0036038Y0351709D01*
X0035804Y0351649D01*
X0035572Y0351582D01*
X0035341Y0351511D01*
X0035112Y0351433D01*
X0034885Y0351350D01*
X0034660Y0351262D01*
X0034437Y0351168D01*
X0034217Y0351069D01*
X0033999Y0350964D01*
X0033784Y0350855D01*
X0033571Y0350740D01*
X0033361Y0350620D01*
X0033155Y0350495D01*
X0032951Y0350365D01*
X0032750Y0350230D01*
X0032553Y0350090D01*
X0032359Y0349946D01*
X0032169Y0349797D01*
X0031983Y0349643D01*
X0031800Y0349485D01*
X0031621Y0349323D01*
X0031446Y0349156D01*
X0031275Y0348985D01*
X0031108Y0348810D01*
X0030946Y0348631D01*
X0030788Y0348448D01*
X0030634Y0348262D01*
X0030485Y0348072D01*
X0030341Y0347878D01*
X0030201Y0347681D01*
X0030066Y0347480D01*
X0029936Y0347276D01*
X0029811Y0347070D01*
X0029691Y0346860D01*
X0029576Y0346647D01*
X0029467Y0346432D01*
X0029362Y0346214D01*
X0029263Y0345994D01*
X0029169Y0345771D01*
X0029081Y0345546D01*
X0028998Y0345319D01*
X0028920Y0345090D01*
X0028849Y0344859D01*
X0028782Y0344627D01*
X0028722Y0344393D01*
X0028667Y0344158D01*
X0028617Y0343921D01*
X0028574Y0343684D01*
X0028536Y0343445D01*
X0028504Y0343205D01*
X0028478Y0342965D01*
X0028457Y0342724D01*
X0028443Y0342483D01*
X0028434Y0342242D01*
X0028431Y0342000D01*
M02*
